<svg width="124" height="38" viewBox="0 0 124 38" fill="none" xmlns="http://www.w3.org/2000/svg">
    <rect x="1.5" y="1.5" width="121" height="35" rx="17.5" stroke="#C92665" stroke-width="3"/>
    <path d="M45.8864 24H44.4091L48.6818 12.3636H50.1364L54.4091 24H52.9318L49.4545 14.2045H49.3636L45.8864 24ZM46.4318 19.4545H52.3864V20.7045H46.4318V19.4545ZM59.5852 24.1818C58.767 24.1818 58.0625 23.9886 57.4716 23.6023C56.8807 23.2159 56.4261 22.6837 56.108 22.0057C55.7898 21.3277 55.6307 20.553 55.6307 19.6818C55.6307 18.7955 55.7936 18.0133 56.1193 17.3352C56.4489 16.6534 56.9072 16.1212 57.4943 15.7386C58.0852 15.3523 58.7746 15.1591 59.5625 15.1591C60.1761 15.1591 60.7292 15.2727 61.2216 15.5C61.714 15.7273 62.1174 16.0455 62.4318 16.4545C62.7462 16.8636 62.9413 17.3409 63.017 17.8864H61.6761C61.5739 17.4886 61.3466 17.1364 60.9943 16.8295C60.6458 16.5189 60.1761 16.3636 59.5852 16.3636C59.0625 16.3636 58.6042 16.5 58.2102 16.7727C57.8201 17.0417 57.5152 17.4223 57.2955 17.9148C57.0795 18.4034 56.9716 18.9773 56.9716 19.6364C56.9716 20.3106 57.0777 20.8977 57.2898 21.3977C57.5057 21.8977 57.8087 22.286 58.1989 22.5625C58.5928 22.839 59.0549 22.9773 59.5852 22.9773C59.9337 22.9773 60.25 22.9167 60.5341 22.7955C60.8182 22.6742 61.0587 22.5 61.2557 22.2727C61.4527 22.0455 61.5928 21.7727 61.6761 21.4545H63.017C62.9413 21.9697 62.7538 22.4337 62.4545 22.8466C62.1591 23.2557 61.767 23.5814 61.2784 23.8239C60.7936 24.0625 60.2292 24.1818 59.5852 24.1818ZM68.6364 24.1818C67.7955 24.1818 67.0701 23.9962 66.4602 23.625C65.8542 23.25 65.3864 22.7273 65.0568 22.0568C64.7311 21.3826 64.5682 20.5985 64.5682 19.7045C64.5682 18.8106 64.7311 18.0227 65.0568 17.3409C65.3864 16.6553 65.8447 16.1212 66.4318 15.7386C67.0227 15.3523 67.7121 15.1591 68.5 15.1591C68.9545 15.1591 69.4034 15.2348 69.8466 15.3864C70.2898 15.5379 70.6932 15.7841 71.0568 16.125C71.4205 16.4621 71.7102 16.9091 71.9261 17.4659C72.142 18.0227 72.25 18.7083 72.25 19.5227V20.0909H65.5227V18.9318H70.8864C70.8864 18.4394 70.7879 18 70.5909 17.6136C70.3977 17.2273 70.1212 16.9223 69.7614 16.6989C69.4053 16.4754 68.9848 16.3636 68.5 16.3636C67.9659 16.3636 67.5038 16.4962 67.1136 16.7614C66.7273 17.0227 66.4299 17.3636 66.2216 17.7841C66.0133 18.2045 65.9091 18.6553 65.9091 19.1364V19.9091C65.9091 20.5682 66.0227 21.1269 66.25 21.5852C66.4811 22.0398 66.8011 22.3864 67.2102 22.625C67.6193 22.8598 68.0947 22.9773 68.6364 22.9773C68.9886 22.9773 69.3068 22.928 69.5909 22.8295C69.8788 22.7273 70.1269 22.5758 70.3352 22.375C70.5436 22.1705 70.7045 21.9167 70.8182 21.6136L72.1136 21.9773C71.9773 22.4167 71.7481 22.803 71.4261 23.1364C71.1042 23.4659 70.7064 23.7235 70.233 23.9091C69.7595 24.0909 69.2273 24.1818 68.6364 24.1818ZM80.4716 17.2273L79.267 17.5682C79.1913 17.3674 79.0795 17.1723 78.9318 16.983C78.7879 16.7898 78.5909 16.6307 78.3409 16.5057C78.0909 16.3807 77.7708 16.3182 77.3807 16.3182C76.8466 16.3182 76.4015 16.4413 76.0455 16.6875C75.6932 16.9299 75.517 17.2386 75.517 17.6136C75.517 17.947 75.6383 18.2102 75.8807 18.4034C76.1231 18.5966 76.5019 18.7576 77.017 18.8864L78.3125 19.2045C79.0928 19.3939 79.6742 19.6837 80.0568 20.0739C80.4394 20.4602 80.6307 20.9583 80.6307 21.5682C80.6307 22.0682 80.4867 22.5152 80.1989 22.9091C79.9148 23.303 79.517 23.6136 79.0057 23.8409C78.4943 24.0682 77.8996 24.1818 77.2216 24.1818C76.3314 24.1818 75.5947 23.9886 75.0114 23.6023C74.428 23.2159 74.0587 22.6515 73.9034 21.9091L75.1761 21.5909C75.2973 22.0606 75.5265 22.4129 75.8636 22.6477C76.2045 22.8826 76.6496 23 77.1989 23C77.8239 23 78.3201 22.8674 78.6875 22.6023C79.0587 22.3333 79.2443 22.0114 79.2443 21.6364C79.2443 21.3333 79.1383 21.0795 78.9261 20.875C78.714 20.6667 78.3883 20.5114 77.9489 20.4091L76.4943 20.0682C75.6951 19.8788 75.108 19.5852 74.733 19.1875C74.3617 18.786 74.1761 18.2841 74.1761 17.6818C74.1761 17.1894 74.3144 16.7538 74.5909 16.375C74.8712 15.9962 75.2519 15.6989 75.733 15.483C76.2178 15.267 76.767 15.1591 77.3807 15.1591C78.2443 15.1591 78.9223 15.3485 79.4148 15.7273C79.911 16.1061 80.2633 16.6061 80.4716 17.2273ZM88.831 17.2273L87.6264 17.5682C87.5507 17.3674 87.4389 17.1723 87.2912 16.983C87.1473 16.7898 86.9503 16.6307 86.7003 16.5057C86.4503 16.3807 86.1302 16.3182 85.7401 16.3182C85.206 16.3182 84.7609 16.4413 84.4048 16.6875C84.0526 16.9299 83.8764 17.2386 83.8764 17.6136C83.8764 17.947 83.9976 18.2102 84.2401 18.4034C84.4825 18.5966 84.8613 18.7576 85.3764 18.8864L86.6719 19.2045C87.4522 19.3939 88.0336 19.6837 88.4162 20.0739C88.7988 20.4602 88.9901 20.9583 88.9901 21.5682C88.9901 22.0682 88.8461 22.5152 88.5582 22.9091C88.2741 23.303 87.8764 23.6136 87.3651 23.8409C86.8537 24.0682 86.259 24.1818 85.581 24.1818C84.6908 24.1818 83.9541 23.9886 83.3707 23.6023C82.7874 23.2159 82.4181 22.6515 82.2628 21.9091L83.5355 21.5909C83.6567 22.0606 83.8859 22.4129 84.223 22.6477C84.5639 22.8826 85.009 23 85.5582 23C86.1832 23 86.6795 22.8674 87.0469 22.6023C87.4181 22.3333 87.6037 22.0114 87.6037 21.6364C87.6037 21.3333 87.4976 21.0795 87.2855 20.875C87.0734 20.6667 86.7476 20.5114 86.3082 20.4091L84.8537 20.0682C84.0545 19.8788 83.4673 19.5852 83.0923 19.1875C82.7211 18.786 82.5355 18.2841 82.5355 17.6818C82.5355 17.1894 82.6738 16.7538 82.9503 16.375C83.2306 15.9962 83.6113 15.6989 84.0923 15.483C84.5772 15.267 85.1264 15.1591 85.7401 15.1591C86.6037 15.1591 87.2817 15.3485 87.7741 15.7273C88.2704 16.1061 88.6226 16.6061 88.831 17.2273ZM93.5767 24.2045C93.0237 24.2045 92.5218 24.1004 92.071 23.892C91.6203 23.6799 91.2623 23.375 90.9972 22.9773C90.732 22.5758 90.5994 22.0909 90.5994 21.5227C90.5994 21.0227 90.6979 20.6174 90.8949 20.3068C91.0919 19.9924 91.3551 19.7462 91.6847 19.5682C92.0142 19.3902 92.3778 19.2576 92.7756 19.1705C93.1771 19.0795 93.5805 19.0076 93.9858 18.9545C94.5161 18.8864 94.946 18.8352 95.2756 18.8011C95.6089 18.7633 95.8513 18.7008 96.0028 18.6136C96.1581 18.5265 96.2358 18.375 96.2358 18.1591V18.1136C96.2358 17.553 96.0824 17.1174 95.7756 16.8068C95.4725 16.4962 95.0123 16.3409 94.3949 16.3409C93.7547 16.3409 93.2528 16.4811 92.8892 16.7614C92.5256 17.0417 92.2699 17.3409 92.1222 17.6591L90.8494 17.2045C91.0767 16.6742 91.3797 16.2614 91.7585 15.9659C92.1411 15.6667 92.5578 15.4583 93.0085 15.3409C93.4631 15.2197 93.91 15.1591 94.3494 15.1591C94.6297 15.1591 94.9517 15.1932 95.3153 15.2614C95.6828 15.3258 96.0369 15.4602 96.3778 15.6648C96.7225 15.8693 97.0085 16.178 97.2358 16.5909C97.4631 17.0038 97.5767 17.5568 97.5767 18.25V24H96.2358V22.8182H96.1676C96.0767 23.0076 95.9252 23.2102 95.7131 23.4261C95.5009 23.642 95.2188 23.8258 94.8665 23.9773C94.5142 24.1288 94.0843 24.2045 93.5767 24.2045ZM93.7812 23C94.3116 23 94.7585 22.8958 95.1222 22.6875C95.4896 22.4792 95.7661 22.2102 95.9517 21.8807C96.1411 21.5511 96.2358 21.2045 96.2358 20.8409V19.6136C96.179 19.6818 96.054 19.7443 95.8608 19.8011C95.6714 19.8542 95.4517 19.9015 95.2017 19.9432C94.9555 19.9811 94.715 20.0152 94.4801 20.0455C94.2491 20.072 94.0616 20.0947 93.9176 20.1136C93.5691 20.1591 93.2434 20.233 92.9403 20.3352C92.6411 20.4337 92.3987 20.5833 92.2131 20.7841C92.0313 20.9811 91.9403 21.25 91.9403 21.5909C91.9403 22.0568 92.1127 22.4091 92.4574 22.6477C92.8059 22.8826 93.2472 23 93.7812 23ZM100.024 24V15.2727H101.32V16.5909H101.411C101.57 16.1591 101.857 15.8087 102.274 15.5398C102.691 15.2708 103.161 15.1364 103.683 15.1364C103.782 15.1364 103.905 15.1383 104.053 15.142C104.2 15.1458 104.312 15.1515 104.388 15.1591V16.5227C104.342 16.5114 104.238 16.4943 104.075 16.4716C103.916 16.4451 103.748 16.4318 103.57 16.4318C103.145 16.4318 102.767 16.5208 102.433 16.6989C102.104 16.8731 101.842 17.1155 101.649 17.4261C101.46 17.733 101.365 18.0833 101.365 18.4773V24H100.024Z" fill="#C92665"/>
    <path d="M24.5859 20.6172C26.1224 19.9922 27.5938 19.6797 29 19.6797C30.4062 19.6797 31.8646 19.9922 33.375 20.6172C34.9115 21.2161 35.6797 22.0104 35.6797 23V24.6797H22.3203V23C22.3203 22.0104 23.0755 21.2161 24.5859 20.6172ZM31.3438 17.0234C30.6927 17.6745 29.9115 18 29 18C28.0885 18 27.3073 17.6745 26.6562 17.0234C26.0052 16.3724 25.6797 15.5911 25.6797 14.6797C25.6797 13.7682 26.0052 12.987 26.6562 12.3359C27.3073 11.6589 28.0885 11.3203 29 11.3203C29.9115 11.3203 30.6927 11.6589 31.3438 12.3359C31.9948 12.987 32.3203 13.7682 32.3203 14.6797C32.3203 15.5911 31.9948 16.3724 31.3438 17.0234Z" fill="#C92665"/>
    </svg>
    